<?xml version="1.0" encoding="utf-8"?>
<!-- Generator: Adobe Illustrator 27.5.0, SVG Export Plug-In . SVG Version: 6.00 Build 0)  -->
<svg version="1.1" id="Camada_1" xmlns="http://www.w3.org/2000/svg" xmlns:xlink="http://www.w3.org/1999/xlink" x="0px" y="0px"
	 viewBox="0 0 1300 1300" style="enable-background:new 0 0 1300 1300;" xml:space="preserve">
<g>
	<g>
		<linearGradient id="SVGID_1_" gradientUnits="userSpaceOnUse" x1="839.6683" y1="716.706" x2="839.6683" y2="504.7221">
			<stop  offset="0" style="stop-color:#741472"/>
			<stop  offset="0.1531" style="stop-color:#3B0256"/>
			<stop  offset="1" style="stop-color:#4C0055"/>
		</linearGradient>
		<path style="fill:url(#SVGID_1_);" d="M820.987,504.722c0,4.307-1.234,8.615-3.701,12.368L708.989,681.822
			c-9.843,14.972,0.897,34.884,18.814,34.884h99.21c7.579,0,14.65-3.813,18.814-10.147L970.385,517.09
			c2.468-3.753,3.701-8.061,3.701-12.368H839.668H820.987z"/>
		<path style="fill:#A3238E;" d="M827.013,704.959h-99.211c-5.8,0-8.559-3.956-9.477-5.656c-0.917-1.701-2.706-6.18,0.479-11.026
			l1.034,0.68c-2.821,4.289-1.237,8.254-0.424,9.76c0.811,1.505,3.254,5.007,8.388,5.007h99.211c3.218,0,6.195-1.605,7.963-4.295
			l120.095-182.68l1.034,0.679L836.01,700.107C834.013,703.145,830.649,704.959,827.013,704.959z"/>
		
			<linearGradient id="SVGID_00000036227519914639572900000007902614895266394806_" gradientUnits="userSpaceOnUse" x1="839.6683" y1="504.7221" x2="839.6683" y2="292.738">
			<stop  offset="0" style="stop-color:#9A258F"/>
			<stop  offset="0.2908" style="stop-color:#812990"/>
			<stop  offset="1" style="stop-color:#741472"/>
		</linearGradient>
		<path style="fill:url(#SVGID_00000036227519914639572900000007902614895266394806_);" d="M845.827,302.885
			c-4.164-6.333-11.234-10.147-18.814-10.147h-99.21c-17.917,0-28.656,19.912-18.814,34.883l108.296,164.732
			c2.468,3.754,3.701,8.061,3.701,12.368h18.682h134.418c0-4.307-1.234-8.615-3.701-12.368L845.827,302.885z"/>
		<path style="fill:#A3238E;" d="M955.071,492.696L834.976,310.018c-1.768-2.69-4.745-4.296-7.963-4.296h-99.211
			c-5.133,0-7.576,3.501-8.388,5.007c-0.813,1.505-2.396,5.47,0.425,9.76l-1.034,0.68c-3.187-4.847-1.397-9.326-0.481-11.027
			c0.918-1.701,3.677-5.656,9.477-5.656h99.211c3.636,0,6.999,1.814,8.997,4.853l120.095,182.678L955.071,492.696z"/>
		<rect x="820.986" y="504.104" style="fill:#A3238E;" width="153.1" height="1.237"/>
		
			<linearGradient id="SVGID_00000183223735184481566630000007277339383151182723_" gradientUnits="userSpaceOnUse" x1="586.9196" y1="716.706" x2="586.9196" y2="504.7221" gradientTransform="matrix(-1 0 0 1 1047.2516 0)">
			<stop  offset="0" style="stop-color:#741472"/>
			<stop  offset="0.1531" style="stop-color:#3B0256"/>
			<stop  offset="1" style="stop-color:#4C0055"/>
		</linearGradient>
		<path style="fill:url(#SVGID_00000183223735184481566630000007277339383151182723_);" d="M479.014,504.722
			c0,4.307,1.234,8.615,3.702,12.368l108.296,164.732c9.842,14.972-0.897,34.884-18.814,34.884h-99.21
			c-7.579,0-14.65-3.813-18.814-10.147L329.616,517.09c-2.468-3.753-3.702-8.061-3.702-12.368h134.418H479.014z"/>
		<path style="fill:#A3238E;" d="M572.198,704.959h-99.211c-3.636,0-6.999-1.814-8.996-4.853L343.896,517.427l1.034-0.679
			l120.095,182.679c1.768,2.69,4.745,4.295,7.963,4.295h99.211c5.133,0,7.576-3.501,8.388-5.007c0.812-1.505,2.396-5.471-0.424-9.76
			l1.034-0.68c3.186,4.847,1.397,9.326,0.479,11.026C580.757,701.003,577.998,704.959,572.198,704.959z"/>
		
			<linearGradient id="SVGID_00000050633263188436377210000011646637022813651867_" gradientUnits="userSpaceOnUse" x1="586.9196" y1="504.7221" x2="586.9196" y2="292.738" gradientTransform="matrix(-1 0 0 1 1047.2516 0)">
			<stop  offset="0" style="stop-color:#9A258F"/>
			<stop  offset="0.2908" style="stop-color:#812990"/>
			<stop  offset="1" style="stop-color:#741472"/>
		</linearGradient>
		<path style="fill:url(#SVGID_00000050633263188436377210000011646637022813651867_);" d="M454.173,302.885
			c4.164-6.333,11.234-10.147,18.814-10.147h99.21c17.917,0,28.656,19.912,18.814,34.883L482.715,492.354
			c-2.468,3.754-3.702,8.061-3.702,12.368h-18.682H325.914c0-4.307,1.234-8.615,3.702-12.368L454.173,302.885z"/>
		<path style="fill:#A3238E;" d="M344.929,492.696l-1.034-0.679L463.99,309.338c1.997-3.038,5.361-4.853,8.996-4.853h99.211
			c5.8,0,8.559,3.956,9.477,5.656c0.918,1.701,2.707,6.18-0.48,11.027l-1.034-0.68c2.822-4.29,1.238-8.255,0.426-9.76
			c-0.812-1.505-3.255-5.007-8.388-5.007h-99.211c-3.218,0-6.195,1.606-7.963,4.295L344.929,492.696z"/>
		<rect x="325.914" y="504.104" style="fill:#A3238E;" width="153.1" height="1.237"/>
	</g>
	<g>
		<path style="fill:#231F20;" d="M405.52,802.711c12.666-13.082,30.523-21.595,50.249-21.595c33.222,0,59.384,20.764,67.689,53.571
			h-20.764c-7.683-21.802-25.54-32.807-46.926-32.807c-13.912,0-26.578,6.022-35.714,15.574c-9.136,9.551-14.95,22.425-14.95,37.374
			c0,14.534,5.814,27.409,14.95,36.96c9.137,9.552,21.802,15.572,35.714,15.572c22.009,0,40.697-12.666,48.172-34.675h20.556
			c-8.305,33.014-34.883,55.439-68.728,55.439c-19.726,0-37.583-8.306-50.249-21.595c-12.458-13.289-20.764-31.56-20.764-51.701
			C384.756,834.271,393.062,816,405.52,802.711z"/>
		<path style="fill:#231F20;" d="M552.727,801.88c13.289-13.496,31.976-22.009,52.325-22.009c20.556,0,39.035,8.513,52.532,22.009
			c13.081,13.497,21.594,31.977,21.594,52.533c0,20.557-8.513,39.037-21.594,52.533c-13.497,13.704-31.976,22.01-52.532,22.01
			c-20.349,0-39.036-8.306-52.325-22.01c-13.082-13.496-21.595-31.976-21.595-52.533
			C531.132,833.857,539.645,815.377,552.727,801.88z M642.634,816.831c-9.759-9.76-23.256-15.781-37.582-15.781
			c-14.327,0-27.616,6.021-37.167,15.781c-9.551,9.551-15.573,22.84-15.573,37.582c0,14.743,6.022,28.031,15.573,37.583
			c9.551,9.758,22.84,15.781,37.167,15.781c14.326,0,27.823-6.023,37.582-15.781c9.343-9.552,15.365-22.633,15.365-37.583
			S651.977,826.382,642.634,816.831z"/>
		<path style="fill:#231F20;" d="M744.576,781.947c47.549,0,71.427,36.336,71.427,72.674c0,36.336-23.878,72.465-71.427,72.465
			h-52.117V781.947H744.576z M744.576,906.115c33.637,0,50.663-25.748,50.663-51.494c0-25.748-17.026-51.703-50.663-51.703H713.43
			v103.197H744.576z"/>
		<path style="fill:#231F20;" d="M847.763,906.115h67.481v20.971h-88.66V781.947h88.453v20.971h-67.274v40.905h65.82v21.179h-65.82
			V906.115z"/>
	</g>
	<g>
		<path style="fill:#58595B;" d="M399.597,955.131c33.797,0,33.797,51.468,0,51.468h-17.377c0-17.156,0-34.313,0-51.468H399.597z
			 M399.597,1005.495c32.324,0,32.324-49.26,0-49.26h-16.273c0,15.978,0,33.282,0,49.26H399.597z"/>
		<path style="fill:#58595B;" d="M448.485,956.162h-10.971v49.333h10.971v1.104c-7.658,0-15.389,0-23.047,0v-1.104h10.971v-49.333
			h-10.971v-1.031c7.658,0,15.389,0,23.047,0V956.162z"/>
		<path style="fill:#58595B;" d="M496.27,970.519c-3.535-9.203-12.37-14.725-21.869-14.725c-6.701,0-12.665,2.872-17.082,7.436
			c-4.27,4.566-6.995,10.751-6.995,17.672c0,6.921,2.725,13.18,6.995,17.672c4.418,4.639,10.382,7.436,17.082,7.436
			c10.309,0,21.28-8.172,23.194-19.07h-22.752v-1.178h24.224c-0.147,1.766-0.589,3.46-1.252,5.154
			c-3.387,9.425-14.211,16.346-23.415,16.346c-6.995,0-13.327-3.018-17.892-7.806c-4.492-4.712-7.363-11.266-7.363-18.555
			c0-7.216,2.872-13.769,7.363-18.555c4.565-4.786,10.897-7.731,17.892-7.731c10.161,0,19.733,6.11,23.121,15.903H496.27z"/>
		<path style="fill:#58595B;" d="M522.701,956.162h-10.971v49.333h10.971v1.104c-7.658,0-15.389,0-23.047,0v-1.104h10.971v-49.333
			h-10.971v-1.031c7.658,0,15.389,0,23.047,0V956.162z"/>
		<path style="fill:#58595B;" d="M542.873,1006.599v-50.364h-17.819v-1.178h36.742v1.178h-17.819v50.364H542.873z"/>
		<path style="fill:#58595B;" d="M589.701,989.295h-26.066l-6.995,17.304h-1.252l20.69-52.278h1.252l20.69,52.278h-1.252
			L589.701,989.295z M564.151,988.191h25.108l-12.591-32.324L564.151,988.191z"/>
		<path style="fill:#58595B;" d="M603.026,1005.421h27.685v1.178c-9.646,0-19.218,0-28.863,0v-51.468h1.178V1005.421z"/>
		<path style="fill:#58595B;" d="M692.408,989.295h-26.066l-6.995,17.304h-1.251l20.69-52.278h1.251l20.69,52.278h-1.251
			L692.408,989.295z M666.859,988.191h25.108l-12.591-32.324L666.859,988.191z"/>
		<path style="fill:#58595B;" d="M748.661,970.519c-3.535-9.203-12.37-14.725-21.87-14.725c-6.7,0-12.665,2.872-17.082,7.436
			c-4.271,4.566-6.995,10.751-6.995,17.672c0,6.921,2.724,13.18,6.995,17.672c4.418,4.639,10.383,7.436,17.082,7.436
			c10.309,0,21.28-8.172,23.194-19.07h-22.751v-1.178h24.224c-0.147,1.766-0.588,3.46-1.251,5.154
			c-3.387,9.425-14.211,16.346-23.415,16.346c-6.995,0-13.326-3.018-17.892-7.806c-4.491-4.712-7.363-11.266-7.363-18.555
			c0-7.216,2.872-13.769,7.363-18.555c4.566-4.786,10.897-7.731,17.892-7.731c10.161,0,19.734,6.11,23.121,15.903H748.661z"/>
		<path style="fill:#58595B;" d="M757.272,1005.495h27.39v1.104h-28.421h-0.147v-51.468h28.421v1.104h-27.243v24.004h26.654v1.179
			h-26.654V1005.495z"/>
		<path style="fill:#58595B;" d="M790.036,1006.599v-51.615l1.03,0.073l34.239,49.48v-49.48h1.104v51.542h-1.178l-34.018-49.186
			v49.186H790.036z"/>
		<path style="fill:#58595B;" d="M876.624,970.814c-1.178-2.724-2.872-5.154-4.859-7.216c-4.344-4.491-10.383-7.216-17.009-7.216
			c-6.626,0-12.665,2.725-17.009,7.216c-4.344,4.492-7.068,10.604-7.068,17.304c0,6.775,2.724,12.886,7.068,17.304
			c4.344,4.491,10.383,7.289,17.009,7.289c6.627,0,12.665-2.798,17.009-7.289c1.987-2.062,3.681-4.418,4.859-7.143h1.253
			c-1.253,3.018-3.093,5.743-5.302,8.026c-4.564,4.712-10.824,7.584-17.819,7.584c-6.995,0-13.254-2.872-17.819-7.584
			c-4.492-4.639-7.364-11.044-7.364-18.187c0-7.068,2.872-13.474,7.364-18.113c4.564-4.712,10.824-7.584,17.819-7.584
			c6.995,0,13.254,2.872,17.819,7.584c2.209,2.282,4.049,5.007,5.302,8.026H876.624z"/>
		<path style="fill:#58595B;" d="M880.156,955.131l18.114,29.011l18.113-29.011h1.398l-18.923,30.188v21.28h-1.178v-21.28
			l-18.923-30.188H880.156z"/>
	</g>
</g>
</svg>
